<svg width="46" height="45" viewBox="0 0 46 45" fill="none" xmlns="http://www.w3.org/2000/svg">
<mask id="mask0_16_382" style="mask-type:luminance" maskUnits="userSpaceOnUse" x="0" y="0" width="46" height="45">
<path d="M45.094 0H0.115967V44.978H45.094V0Z" fill="white"/>
</mask>
<g mask="url(#mask0_16_382)">
<path d="M21.7058 0.703125H23.5046C28.6131 0.703125 32.3738 0.704349 35.2556 1.0918C37.9383 1.45247 39.7667 2.13727 41.1619 3.39844L41.4353 3.6582C42.8637 5.08665 43.6179 6.97649 44.0027 9.83789C44.3901 12.7197 44.3914 16.4813 44.3914 21.5898V23.3887C44.3914 28.4971 44.3901 32.2578 44.0027 35.1396C43.642 37.8225 42.9564 39.6507 41.6951 41.0459L41.4353 41.3193C40.0068 42.7478 38.1172 43.502 35.2556 43.8867C32.3738 44.2742 28.6131 44.2754 23.5046 44.2754H21.7058C16.5973 44.2754 12.8357 44.2742 9.95386 43.8867C7.27107 43.526 5.44272 42.8405 4.04761 41.5791L3.77417 41.3193C2.34583 39.8908 1.59248 38.0011 1.20776 35.1396C0.820315 32.2578 0.819092 28.4972 0.819092 23.3887V21.5898C0.819092 16.4813 0.82031 12.7197 1.20776 9.83789C1.56848 7.1553 2.25315 5.32671 3.5144 3.93164L3.77417 3.6582C5.20261 2.22977 7.0925 1.47655 9.95386 1.0918C12.8357 0.704343 16.5973 0.703125 21.7058 0.703125Z" stroke="#42484E" stroke-width="1.40556"/>
<path d="M24.0487 32.4033C13.7974 32.4033 7.95031 25.3754 7.70667 13.6812H12.8417C13.0103 22.2644 16.7959 25.9002 19.7944 26.6498V13.6812H24.6297V21.0837C27.5908 20.7651 30.7014 17.3918 31.7509 13.6812H36.5862C35.7803 18.2539 32.4069 21.6272 30.0081 23.0141C32.4069 24.1385 36.249 27.0808 37.7108 32.4033H32.3882C31.245 28.8425 28.3967 26.0876 24.6297 25.7127V32.4033H24.0487Z" fill="#42484E"/>
</g>
</svg>
