<svg width="46" height="45" viewBox="0 0 46 45" fill="none" xmlns="http://www.w3.org/2000/svg">
<path d="M22.5243 0.703125H24.3231C29.4316 0.703125 33.1923 0.704349 36.0741 1.0918C38.7568 1.45247 40.5852 2.13727 41.9803 3.39844L42.2538 3.6582C43.6822 5.08665 44.4364 6.97649 44.8212 9.83789C45.2086 12.7197 45.2098 16.4813 45.2098 21.5898V23.3887C45.2098 28.4971 45.2086 32.2578 44.8212 35.1396C44.4605 37.8225 43.7749 39.6507 42.5135 41.0459L42.2538 41.3193C40.8253 42.7478 38.9357 43.502 36.0741 43.8867C33.1923 44.2742 29.4316 44.2754 24.3231 44.2754H22.5243C17.4157 44.2754 13.6542 44.2742 10.7723 43.8867C8.08955 43.526 6.2612 42.8405 4.86609 41.5791L4.59265 41.3193C3.16431 39.8908 2.41096 38.0011 2.02625 35.1396C1.6388 32.2578 1.63757 28.4972 1.63757 23.3887V21.5898C1.63757 16.4813 1.63879 12.7197 2.02625 9.83789C2.38696 7.1553 3.07163 5.32671 4.33289 3.93164L4.59265 3.6582C6.02109 2.22977 7.91098 1.47655 10.7723 1.0918C13.6542 0.704343 17.4157 0.703125 22.5243 0.703125Z" stroke="#42484E" stroke-width="1.40556"/>
<path d="M31.6408 12.6499H15.2063C11.9818 12.6499 9.36792 15.2357 9.36792 18.4253V26.5524C9.36792 29.742 11.9818 32.3278 15.2063 32.3278H31.6408C34.8653 32.3278 37.4792 29.742 37.4792 26.5524V18.4253C37.4792 15.2357 34.8653 12.6499 31.6408 12.6499ZM27.6924 22.8843L20.0054 26.511C19.8006 26.6076 19.564 26.4599 19.564 26.2354V18.7553C19.564 18.5276 19.8068 18.3801 20.0121 18.483L27.6991 22.3364C27.9276 22.451 27.9236 22.7752 27.6924 22.8843Z" fill="#42484E"/>
</svg>
