<svg width="45" height="45" viewBox="0 0 45 45" fill="none" xmlns="http://www.w3.org/2000/svg">
<path d="M21.5898 0.703125H23.3887C28.4972 0.703125 32.2578 0.704349 35.1396 1.0918C37.8223 1.45247 39.6508 2.13727 41.0459 3.39844L41.3193 3.6582C42.7478 5.08665 43.502 6.97649 43.8867 9.83789C44.2742 12.7197 44.2754 16.4813 44.2754 21.5898V23.3887C44.2754 28.4971 44.2742 32.2578 43.8867 35.1396C43.526 37.8225 42.8404 39.6507 41.5791 41.0459L41.3193 41.3193C39.8908 42.7478 38.0013 43.502 35.1396 43.8867C32.2578 44.2742 28.4971 44.2754 23.3887 44.2754H21.5898C16.4813 44.2754 12.7197 44.2742 9.83789 43.8867C7.15511 43.526 5.32675 42.8405 3.93164 41.5791L3.6582 41.3193C2.22986 39.8908 1.47651 38.0011 1.0918 35.1396C0.704349 32.2578 0.703125 28.4972 0.703125 23.3887V21.5898C0.703125 16.4813 0.704343 12.7197 1.0918 9.83789C1.45251 7.1553 2.13718 5.32671 3.39844 3.93164L3.6582 3.6582C5.08664 2.22977 6.97653 1.47655 9.83789 1.0918C12.7197 0.704343 16.4813 0.703125 21.5898 0.703125Z" stroke="#42484E" stroke-width="1.40556"/>
<path d="M35.1391 12.0416L30.9151 32.7977C30.9151 32.7977 30.3247 34.2369 28.6999 33.546L18.9089 26.2421C20.2249 25.0891 30.4342 16.1432 30.8807 15.7375C31.5708 15.1096 31.1426 14.736 30.3403 15.2108L15.2604 24.5446L9.44242 22.6357C9.44242 22.6357 8.52649 22.3189 8.43834 21.6281C8.34967 20.9372 9.47215 20.563 9.47215 20.563L33.1898 11.4945C33.1898 11.4945 35.1391 10.6598 35.1391 12.0416Z" fill="#42484E"/>
</svg>
